<svg width="20" height="20" viewBox="0 0 20 20" fill="none" xmlns="http://www.w3.org/2000/svg">
<g clip-path="url(#clip0_2_53)">
<path d="M17.945 5.9275C18.7583 5.35 19.4425 4.62917 20 3.79917V3.79833C19.2558 4.12417 18.4641 4.34083 17.6375 4.44583C18.4875 3.93833 19.1366 3.14083 19.4416 2.18C18.6491 2.6525 17.7741 2.98583 16.8416 3.1725C16.0891 2.37083 15.0166 1.875 13.8466 1.875C11.5766 1.875 9.74912 3.7175 9.74912 5.97583C9.74912 6.30083 9.77662 6.61333 9.84412 6.91083C6.43579 6.74417 3.41912 5.11083 1.39245 2.62167C1.03912 3.23583 0.830788 3.93833 0.830788 4.69417C0.830788 6.11417 1.56162 7.3725 2.65245 8.10167C1.99329 8.08917 1.34745 7.8975 0.799954 7.59667V7.64167C0.799954 9.63417 2.22079 11.2892 4.08495 11.6708C3.75079 11.7625 3.38745 11.8058 3.00995 11.8058C2.74745 11.8058 2.48245 11.7908 2.23412 11.7358C2.76495 13.3592 4.27329 14.5533 6.06495 14.5925C4.66995 15.6833 2.89829 16.3408 0.980788 16.3408C0.644954 16.3408 0.322454 16.3258 -4.57764e-05 16.285C1.81662 17.4558 3.96829 18.125 6.28995 18.125C13.5258 18.125 18.2416 12.0883 17.945 5.9275Z" fill="#3734A9"/>
</g>
<defs>
<clipPath id="clip0_2_53">
<rect width="20" height="20" fill="white"/>
</clipPath>
</defs>
</svg>
