<svg width="20" height="20" viewBox="0 0 20 20" fill="none" xmlns="http://www.w3.org/2000/svg">
<g clip-path="url(#clip0_2_55)">
<path d="M8.43063 14.0989C8.48396 14.0539 8.53813 14.0072 8.58813 13.958C5.80396 16.6897 1.26396 15.4147 0.199796 11.5622V11.5564C-1.2277 6.31471 4.79146 2.33305 8.58646 5.99971C8.66563 6.08388 13.9081 11.6747 13.5748 11.3189H13.5898C14.3723 12.1255 15.504 12.0372 16.1773 11.3322C16.9015 10.5755 16.9273 9.34055 16.2165 8.57138C15.094 7.27888 12.8898 8.24471 13.1006 10.1605L11.839 8.87555L10.3756 7.47638C10.6773 6.87721 11.0731 6.35305 11.569 5.89971C11.5156 5.94555 11.4615 5.99305 11.4115 6.04055C14.2065 3.29888 18.7431 4.60388 19.7998 8.43971V8.44471C21.2306 13.6855 15.2048 17.6672 11.4131 14.0005C11.3356 13.9172 6.09646 8.29138 6.42813 8.64805L6.4248 8.63555C6.41146 8.63555 6.41146 8.62305 6.41146 8.62305C5.5898 7.77555 4.47563 7.90305 3.82396 8.59721C3.09896 9.35388 3.07396 10.5889 3.78646 11.3464C4.8598 12.6089 7.11146 11.673 6.8998 9.71888C6.98146 9.80305 9.8073 12.7039 9.6273 12.5197C9.1698 13.4322 8.65813 13.8514 8.43063 14.0989Z" fill="#3734A9"/>
</g>
<defs>
<clipPath id="clip0_2_55">
<rect width="20" height="20" fill="white"/>
</clipPath>
</defs>
</svg>
