<svg width="112" height="257" viewBox="0 0 112 257" fill="none" xmlns="http://www.w3.org/2000/svg">
<path fill-rule="evenodd" clip-rule="evenodd" d="M33.8539 43.1195C33.8094 43.2373 33.7649 43.355 33.7204 43.4727C34.227 43.6824 34.7336 43.892 35.2402 44.1017C35.2932 43.9623 35.3459 43.8227 35.3992 43.6837C34.8838 43.4953 34.369 43.3076 33.8539 43.1195V43.1195ZM137.149 111.616C137.237 111.514 137.327 111.413 137.416 111.311C136.972 110.867 136.533 110.418 136.076 109.988C136.038 109.952 135.845 110.011 135.791 110.079C135.722 110.165 135.659 110.376 135.7 110.411C136.171 110.826 136.662 111.218 137.149 111.616V111.616ZM143.244 95.1164C143.179 95.1932 143.113 95.2704 143.047 95.3469C143.713 95.9163 144.379 96.4851 145.044 97.0541C145.125 96.9596 145.205 96.8648 145.285 96.7703L143.244 95.1164ZM132.35 211.222L132.396 211.155C131.836 210.475 131.278 209.794 130.716 209.116C130.626 209.008 130.526 208.902 130.41 208.827C130.373 208.803 130.269 208.881 130.196 208.913C130.272 209.041 130.327 209.19 130.428 209.293C131.063 209.942 131.708 210.58 132.35 211.222V211.222ZM104.166 102.955C104.11 103.025 104.054 103.095 103.998 103.165C104.82 103.83 105.641 104.495 106.463 105.159C106.521 105.087 106.579 105.014 106.637 104.942C105.814 104.279 104.989 103.617 104.166 102.955V102.955ZM67.5575 25.673C67.6062 25.5445 67.6546 25.4163 67.703 25.2874C66.8252 25.0218 65.948 24.7556 65.0699 24.4897C65.0261 24.6389 64.9823 24.788 64.9391 24.9371C65.812 25.1827 66.6852 25.428 67.5575 25.673V25.673ZM158.375 67.0583C158.319 67.1973 158.262 67.3367 158.207 67.476C158.741 67.8249 159.264 68.1932 159.819 68.5075C159.933 68.5719 160.182 68.4669 160.326 68.3731C160.372 68.343 160.323 68.0091 160.239 67.9643C159.629 67.6405 158.999 67.3553 158.375 67.0583V67.0583ZM116.061 168.539C116.137 168.44 116.213 168.341 116.288 168.242C115.099 167.277 113.909 166.311 112.72 165.346C112.652 165.428 112.584 165.51 112.516 165.592C113.697 166.574 114.879 167.556 116.061 168.539V168.539ZM138.716 183.303C138.618 183.399 138.519 183.495 138.421 183.591L140.799 186.264C140.906 186.161 141.013 186.059 141.121 185.957C140.319 185.073 139.518 184.188 138.716 183.303V183.303ZM145.434 148.522C145.502 148.42 145.57 148.319 145.638 148.218C144.648 147.405 143.659 146.592 142.669 145.78C142.575 145.905 142.48 146.03 142.386 146.155C143.402 146.943 144.418 147.733 145.434 148.522V148.522ZM168.046 75.2307L168.277 75.0073C167.549 74.3898 166.833 73.7573 166.08 73.1716C165.971 73.0866 165.686 73.2275 165.482 73.2641C165.561 73.4224 165.598 73.6412 165.725 73.7279C166.487 74.2453 167.27 74.7326 168.046 75.2307V75.2307ZM138.525 84.3335C138.568 84.2651 138.611 84.1968 138.653 84.1294C137.313 83.2418 135.972 82.3545 134.631 81.4672C134.558 81.5837 134.484 81.6998 134.411 81.8165C135.782 82.6551 137.153 83.4943 138.525 84.3335V84.3335ZM77.3866 36.0549C77.4148 35.9411 77.4429 35.8273 77.4707 35.7138L71.3359 32.8383C71.2842 32.9489 71.2332 33.0588 71.1818 33.1683C73.2504 34.1302 75.3187 35.0924 77.3866 36.0549V36.0549ZM49.7135 117.408C50.0583 116.599 49.6596 115.418 49.0591 115.196C48.8786 115.129 48.7517 114.926 48.5888 114.798C48.3717 114.627 48.1437 114.469 47.92 114.306C47.9177 114.591 47.8 114.957 47.9334 115.147C48.4629 115.904 49.0709 116.606 49.7135 117.408V117.408ZM127.853 128.029C127.782 128.089 127.712 128.148 127.641 128.208L131.828 132.395C131.89 132.327 131.952 132.259 132.015 132.191L127.853 128.029ZM116.7 178.09C116.668 178.121 116.636 178.152 116.605 178.182L124.71 186.287C124.741 186.256 124.773 186.225 124.804 186.194L116.7 178.09ZM169.717 76.1284L169.346 76.5222C170.345 77.66 171.334 78.807 172.358 79.9229C172.468 80.0432 172.777 79.9827 172.994 80.006C173.01 79.7921 173.124 79.4807 173.025 79.379C171.941 78.2765 170.825 77.2074 169.717 76.1284V76.1284ZM116.785 235.467C116.74 235.503 116.695 235.54 116.65 235.576C119.539 237.78 122.42 239.992 125.326 242.172C125.64 242.407 126.101 242.446 126.493 242.576C126.2 242.408 125.907 242.24 125.614 242.071C125.579 242.05 125.552 242.014 125.518 241.989C122.607 239.814 119.696 237.64 116.785 235.467V235.467ZM51.9967 39.5318C50.9469 38.1928 46.3554 36.4009 45.4321 36.9023C47.5871 37.7654 49.6439 38.5899 51.9967 39.5318V39.5318ZM51.7367 34.2659C50.957 33.7701 49.7799 35.2003 49.3894 33.5683C49.2387 33.6262 49.0895 33.687 48.9368 33.7397C48.8613 33.7655 48.7749 33.8002 48.702 33.7868C48.5548 33.7593 48.3059 33.6373 48.2883 33.6661C48.1921 33.829 48.0466 34.0916 48.113 34.1979C48.3465 34.5701 48.5921 35.0178 48.9541 35.2104C50.2172 35.8822 50.6299 35.7082 51.7367 34.2659V34.2659ZM170.437 191.933C170.562 191.769 170.688 191.604 170.813 191.44C168.422 189.509 166.031 187.577 163.64 185.646C163.58 185.716 163.52 185.786 163.461 185.855C165.786 187.881 168.112 189.907 170.437 191.933V191.933ZM133.479 127.35C133.59 127.247 133.701 127.143 133.811 127.04C130.656 123.672 127.501 120.304 124.346 116.936C127.416 120.384 130.097 124.193 133.479 127.35V127.35ZM135.561 102.706C135.478 102.785 135.396 102.863 135.314 102.941C135.526 103.192 135.729 103.448 135.949 103.691C137.469 105.357 138.975 107.035 140.526 108.67C140.806 108.964 141.483 109.337 141.622 109.226C142.202 108.766 142.017 108.228 141.477 107.768C139.499 106.088 137.532 104.394 135.561 102.706V102.706ZM44.5452 12.5062C44.5788 12.6675 44.6125 12.8281 44.6462 12.9893L58.7693 9.68902C57.6262 9.67365 56.4838 9.80807 55.3385 9.90618C55.0249 9.93333 54.3302 10.3873 54.6527 9.43621C54.5192 9.40416 54.3711 9.32011 54.256 9.35281C54.1036 9.39598 53.8527 9.60759 53.857 9.61445C54.3354 10.3834 53.6123 10.209 53.3078 10.2872C50.3889 11.0365 47.4664 11.7691 44.5452 12.5062V12.5062ZM146.55 197.381C146.617 197.313 146.684 197.245 146.75 197.177L132.448 183.669C132.312 183.818 132.175 183.967 132.038 184.116C136.875 188.537 141.713 192.96 146.55 197.381V197.381ZM199.922 144.562C200 144.51 200.077 144.458 200.154 144.405C200.076 143.199 199.727 141.932 199.981 140.8C200.396 138.951 200.194 137.17 200.014 135.358C200 135.228 199.835 135.113 199.739 134.991C199.617 135.123 199.407 135.242 199.386 135.389C198.985 138.196 198.141 141.012 199.483 143.797C199.61 144.061 199.775 144.307 199.922 144.562V144.562ZM171.076 199.131C165.71 194.91 160.65 190.929 155.589 186.949C160.158 191.572 165.015 195.826 171.076 199.131V199.131ZM141.815 166.183C142.044 166.339 142.201 166.478 142.383 166.565C142.67 166.699 142.973 166.798 143.269 166.912C143.184 166.579 143.2 166.16 143 165.925C140.535 163.036 138.043 160.17 135.539 157.317C135.41 157.169 135.043 157.061 134.901 157.141C134.75 157.224 134.603 157.647 134.683 157.76C135.213 158.505 135.77 159.236 136.383 159.915C137.062 160.666 137.861 161.312 138.515 162.082C139.668 163.437 140.75 164.852 141.815 166.183V166.183ZM160.886 184.639C160.653 184.305 160.467 183.924 160.182 183.643C156.776 180.28 153.362 176.925 149.926 173.593C149.691 173.365 149.267 173.332 148.931 173.209C149.054 173.528 149.101 173.915 149.313 174.158C152.751 178.081 156.646 181.513 160.886 184.639V184.639ZM119.482 93.9822C119.34 94.1548 119.198 94.3279 119.057 94.5005C120.518 95.7505 121.988 96.9927 123.439 98.2544C124.099 98.8281 124.756 99.4106 125.356 100.045C126.161 100.896 126.839 101.877 127.697 102.667C129.2 104.053 130.838 105.292 132.339 106.681C133.062 107.349 133.576 108.238 134.237 108.98C134.395 109.158 134.763 109.149 135.034 109.226C135.054 109.048 135.156 108.813 135.079 108.701C134.624 108.038 134.183 107.35 133.63 106.773C132.736 105.841 131.745 105.003 130.82 104.098C129.7 103.003 128.632 101.854 127.496 100.778C126.281 99.6277 125.038 98.505 123.761 97.426C122.363 96.2447 120.911 95.1272 119.482 93.9822V93.9822ZM125.093 84.0257C125.421 84.4637 125.666 85.039 126.1 85.3356C130.234 88.1571 134.423 90.8984 138.549 93.7326C140.48 95.0598 142.302 96.5449 144.188 97.9388C144.34 98.0503 144.602 98.0101 144.813 98.0409C144.784 97.8436 144.812 97.6075 144.712 97.4584C144.552 97.219 144.327 97.0107 144.094 96.836C141.381 94.8004 138.673 92.758 135.939 90.7512C134.435 89.6481 132.93 88.5355 131.344 87.5615C129.331 86.3272 127.236 85.2293 125.093 84.0257V84.0257ZM87.9942 24.0632C94.0613 28.4997 100.129 32.9361 106.197 37.3729C101.169 31.5004 94.8279 27.4413 87.9942 24.0632V24.0632ZM124.604 90.0517L124.336 90.416C124.589 90.6469 124.816 90.919 125.1 91.1018C126.4 91.9407 127.772 92.6792 129.018 93.5904C133.716 97.0293 138.373 100.524 143.057 103.983C143.21 104.097 143.481 104.052 143.697 104.081C143.653 103.86 143.686 103.552 143.552 103.432C142.065 102.101 140.644 100.668 139.025 99.5165C135.527 97.0273 131.934 94.668 128.356 92.2926C127.143 91.4884 125.857 90.7957 124.604 90.0517V90.0517ZM172.142 206.252C163.295 200.459 155.306 193.575 147.325 186.681C154.743 194.289 162.686 201.231 172.142 206.252V206.252ZM125.363 93.2375C125.757 93.7411 125.881 94.0296 126.101 94.1591C128.11 95.3479 129.233 97.5444 131.586 98.4827C133.345 99.1842 134.736 100.835 136.247 102.113C136.566 102.383 136.696 102.877 136.913 103.267C138.357 102.369 137.919 104.975 139.291 104.562C139.576 104.476 140.178 105.701 140.745 106.193C141.063 106.468 141.61 106.479 142.054 106.61C142.032 106.246 142.15 105.766 141.962 105.539C141.413 104.877 140.774 104.278 140.115 103.719C135.592 99.889 130.77 96.4785 125.363 93.2375V93.2375ZM150 201.881C150.072 201.801 150.144 201.721 150.216 201.641C149.353 200.886 148.465 200.159 147.632 199.372C142.348 194.379 137.091 189.356 131.779 184.393C131.185 183.838 130.294 183.6 129.54 183.215C129.461 183.357 129.381 183.5 129.302 183.643C135.698 190.294 142.685 196.274 150 201.881V201.881ZM188.14 84.2612C172.51 69.9688 156.125 56.6617 137.712 46.0025C155.893 56.9652 172.143 70.4472 188.14 84.2612V84.2612ZM189.137 96.4242C189.214 96.3471 189.291 96.2705 189.368 96.194C188.755 95.1069 188.146 94.0172 187.521 92.9372C187.469 92.8486 187.276 92.8525 187.195 92.7688C186.108 91.6261 185.028 90.4768 183.95 89.3256C183.594 88.9456 183.246 88.5587 182.9 88.1692C182.27 87.4578 181.694 86.6883 181.004 86.0404C180.111 85.2015 179.134 84.4499 178.181 83.6751C177.354 83.0017 176.526 82.3287 175.668 81.6949C175.247 81.3835 174.769 81.1428 174.298 80.908C174.149 80.8327 173.847 80.8027 173.776 80.8864C173.677 81.0058 173.651 81.2955 173.731 81.4319C173.875 81.6778 174.114 81.8715 174.325 82.0742C175.604 83.2984 176.903 84.5026 178.162 85.746C178.974 86.5467 179.707 87.4267 180.518 88.228C181.695 89.391 182.909 90.5157 184.109 91.6549C185.784 93.2453 187.461 94.8341 189.137 96.4242V96.4242ZM121.732 197.675C121.687 197.714 121.641 197.753 121.595 197.792C122.133 198.586 122.593 199.447 123.223 200.159C126.293 203.628 129.827 206.608 133.307 209.648C134.631 210.805 135.773 212.168 137.057 213.374C137.834 214.104 138.679 215.158 139.575 215.247C140.401 215.33 140.848 215.661 141.328 216.082C141.779 216.477 142.024 217.119 142.492 217.48C143.049 217.91 143.747 218.158 144.385 218.481C144.549 218.565 144.718 218.639 144.884 218.716C144.879 218.484 144.969 218.159 144.85 218.035C144.36 217.528 143.814 217.072 143.273 216.615C139.656 213.557 135.984 210.56 132.427 207.432C128.804 204.246 125.293 200.933 121.732 197.675V197.675ZM138.999 182.13C141.631 186.67 159.974 203.205 166.584 205.28C166.233 205.001 166.012 204.819 165.785 204.643C161.276 201.153 156.664 197.786 152.287 194.137C148.234 190.759 144.147 187.383 140.798 183.241C140.442 182.802 139.789 182.604 138.999 182.13V182.13ZM114.973 178.042C123.682 188.44 134.621 199.12 146.254 207.964C135.761 197.927 124.715 187.36 114.973 178.042V178.042ZM144.944 214.712C139.84 210.186 134.705 205.843 129.817 201.237C124.89 196.595 120.21 191.693 115.421 186.905C115.335 186.991 115.25 187.078 115.164 187.165C116.481 190.922 139.988 212.693 144.944 214.712V214.712ZM199.894 129.21C199.973 129.891 200.051 130.573 200.158 131.512C200.585 130.6 200.868 129.995 201.116 129.466C200.701 129.381 200.277 129.294 199.852 129.207C201.028 128.672 201.334 128.04 200.449 126.651C200.247 127.554 200.062 128.38 199.894 129.21V129.21ZM42.8625 114.546C42.6463 114.28 42.4301 114.015 42.2153 113.748C42.0099 113.493 41.8254 113.217 41.5945 112.986C41.4094 112.801 41.0431 112.494 40.9734 112.544C40.3004 113.024 39.8481 113.277 39.402 112.207C39.2067 111.739 38.4287 111.462 37.8638 111.214C37.1054 110.879 37.2872 110.611 37.7811 110.194C37.9345 110.064 37.9207 109.736 37.9832 109.499C37.8158 109.529 37.6267 109.625 37.4851 109.577C36.8663 109.37 36.0951 109.282 35.6808 108.857C34.1175 107.254 32.7717 105.431 31.158 103.885C28.7365 101.566 26.0642 99.507 23.6662 97.1653C18.8684 92.48 13.1094 88.7906 9.1383 83.2562C7.52692 81.011 5.78635 78.7988 4.57986 76.3384C3.41491 73.9621 2.78828 71.3071 2.05961 68.7364C0.884186 64.5934 -0.0861724 60.4009 0.00605602 56.0505C0.129027 50.2603 0.674545 44.5507 3.18989 39.205C4.20571 37.0472 5.01419 34.7859 6.12812 32.6836C6.9016 31.2234 7.81603 29.6882 9.0585 28.659C11.1811 26.9001 12.607 24.6526 14.1719 22.4937C19.307 15.4108 26.0272 10.369 33.9781 6.85741C38.7446 4.75186 43.6405 3.04335 48.7013 1.80186C55.4808 0.138807 62.3469 -0.418488 69.2889 0.320647C72.9276 0.707875 76.5435 1.2063 79.9798 2.6692C83.6948 4.25049 87.5923 5.42166 91.249 7.11938C97.2605 9.90945 103.128 13.0393 107.9 17.7593C111.363 21.1849 114.589 24.8475 117.966 28.3613C119.911 30.3855 121.965 32.3039 123.936 34.3026C128.088 38.5114 133.263 41.2893 138.236 44.2822C148.831 50.6584 159.008 57.5935 168.519 65.498C174.268 70.2752 180.205 74.8425 185.745 79.8493C193.22 86.6059 199.238 94.4996 202.346 104.262C203.988 109.423 204.457 114.773 204.455 120.181C204.453 125.071 204.787 129.969 204.593 134.848C204.447 138.527 205.131 142.062 205.649 145.631C206.013 148.134 206.65 150.601 207.248 153.063C208.777 159.359 212.078 164.891 214.849 170.657C216.949 175.028 218.809 179.515 220.743 183.963C220.855 184.222 220.662 184.612 220.626 184.942C220.616 185.028 220.629 185.151 220.683 185.204C221.51 186.023 221.698 186.999 221.691 188.151C221.686 188.913 222.303 189.663 222.384 190.445C222.752 194.019 223.304 197.607 223.257 201.183C223.216 204.29 222.665 207.435 221.961 210.476C221.243 213.567 220.236 216.623 219.035 219.562C217.816 222.544 216.297 225.414 214.747 228.245C211.674 233.858 207.605 238.723 202.69 242.774C197.673 246.908 191.979 249.992 185.873 252.246C183.46 253.138 180.979 253.867 178.492 254.535C177.181 254.887 175.784 254.913 174.437 255.151C173.509 255.315 172.609 255.647 171.679 255.806C166.384 256.713 161.103 256.385 155.827 255.596C154.883 255.455 153.925 255.406 152.975 255.297C152.685 255.264 152.392 255.2 152.116 255.104C149.658 254.25 147.21 253.369 144.744 252.541C144.37 252.415 143.854 252.649 143.52 252.483C142.445 251.951 141.449 251.24 140.158 251.387C140.261 250.433 139.309 250.899 139.294 250.87C138.541 249.471 137.019 250.27 136.012 249.685C135.614 249.454 135.086 249.365 134.801 249.047C134.486 248.696 133.273 249.022 133.887 247.935C133.434 247.827 132.98 247.725 132.53 247.609C131.999 247.471 131.47 247.321 131.008 246.929C131.263 246.968 131.518 247.007 131.772 247.046C124.368 242.536 117.097 237.888 111.5 231.085C111.391 231.207 111.282 231.329 111.173 231.451C114.557 234.648 117.942 237.846 121.327 241.043C121.321 241.06 121.316 241.076 121.311 241.092C119.83 239.892 118.301 238.746 116.876 237.482C110.532 231.851 105.789 225 102.143 217.413C99.546 212.009 97.3106 206.431 94.8904 200.942C93.6443 198.115 92.31 195.327 91.0911 192.489C90.5553 191.242 90.2947 189.877 89.7567 188.632C89.0287 186.947 88.1378 185.334 87.3473 183.677C86.6847 182.287 85.8183 180.924 85.5423 179.455C85.4239 178.823 85.1387 178.593 84.8928 178.173C84.7459 177.922 84.9167 177.497 84.9 177.153C84.8918 176.988 84.7675 176.682 84.7152 176.686C83.7903 176.759 83.7605 176.016 83.461 175.443C82.125 172.888 80.771 170.343 79.3548 167.833C77.5858 164.698 75.8423 161.544 73.9192 158.505C71.7591 155.091 69.4671 151.755 67.1277 148.46C64.8433 145.242 62.4473 142.102 60.0605 138.958C58.1037 136.381 56.0619 133.868 54.1127 131.287C53.3248 130.244 52.7185 129.065 51.9548 128.002C51.6379 127.559 50.9573 127.337 50.7353 126.874C50.1649 125.687 48.8969 124.986 48.6333 123.549C48.5407 123.047 47.6005 122.752 47.2152 122.236C46.81 121.694 46.6066 121.001 46.3089 120.377C46.2645 120.284 46.2007 120.152 46.1202 120.13C44.972 119.811 44.6665 119.07 45.0913 118.342C44.5877 117.902 44.1393 117.546 43.7351 117.145C43.3609 116.774 43.0921 116.273 42.6734 115.976C41.7456 115.317 42.2807 114.952 42.8785 114.555C42.834 114.888 42.6286 115.413 42.7578 115.515C43.2219 115.882 43.7946 116.113 44.3378 116.372C44.4032 116.402 44.6204 116.296 44.6256 116.24C44.6394 116.092 44.6279 115.871 44.5334 115.795C43.9915 115.36 43.4224 114.959 42.8625 114.546V114.546Z" fill="#3734A9"/>
</svg>
